<?xml version="1.0" encoding="UTF-8" standalone="no"?>
<!DOCTYPE svg PUBLIC "-//W3C//DTD SVG 1.1//EN"
 "http://www.w3.org/Graphics/SVG/1.1/DTD/svg11.dtd">
<!-- Generated by graphviz version 2.47.0 (20210316.0004)
 -->
<!-- Title: dependencies Pages: 1 -->
<svg width="4621pt" height="284pt"
 viewBox="0.00 0.00 4621.00 284.00" xmlns="http://www.w3.org/2000/svg" xmlns:xlink="http://www.w3.org/1999/xlink">
<g id="graph0" class="graph" transform="scale(1 1) rotate(0) translate(4 280)">
<title>dependencies</title>
<polygon fill="white" stroke="transparent" points="-4,4 -4,-280 4617,-280 4617,4 -4,4"/>
<text text-anchor="start" x="2285.51" y="-42.4" font-family="Times-12" font-weight="bold" font-size="14.00">Legend</text>
<polygon fill="#ffffb3" stroke="transparent" points="2072.5,-10 2072.5,-30 2092.5,-30 2092.5,-10 2072.5,-10"/>
<text text-anchor="start" x="2096.13" y="-15.4" font-family="Times-12" font-size="14.00"> &#160;Declarations</text>
<polygon fill="#8dd3c7" stroke="transparent" points="2185.5,-10 2185.5,-30 2205.5,-30 2205.5,-10 2185.5,-10"/>
<text text-anchor="start" x="2209.23" y="-15.4" font-family="Times-12" font-size="14.00"> &#160;Module</text>
<polygon fill="#80b1d3" stroke="transparent" points="2271.5,-10 2271.5,-30 2291.5,-30 2291.5,-10 2271.5,-10"/>
<text text-anchor="start" x="2295.28" y="-15.4" font-family="Times-12" font-size="14.00"> &#160;Bootstrap</text>
<polygon fill="#fdb462" stroke="transparent" points="2368.5,-10 2368.5,-30 2388.5,-30 2388.5,-10 2368.5,-10"/>
<text text-anchor="start" x="2392.17" y="-15.4" font-family="Times-12" font-size="14.00"> &#160;Providers</text>
<polygon fill="#fb8072" stroke="transparent" points="2464.5,-10 2464.5,-30 2484.5,-30 2484.5,-10 2464.5,-10"/>
<text text-anchor="start" x="2488.23" y="-15.4" font-family="Times-12" font-size="14.00"> &#160;Exports</text>
<g id="clust1" class="cluster">
<title>cluster_AppModule</title>
<polygon fill="none" stroke="black" stroke-dasharray="1,5" points="8,-70 8,-268 4605,-268 4605,-70 8,-70"/>
</g>
<g id="clust29" class="cluster">
<title>cluster_AppModule_imports</title>
<polygon fill="none" stroke="black" points="4453,-78 4453,-130 4597,-130 4597,-78 4453,-78"/>
</g>
<g id="clust31" class="cluster">
<title>cluster_AppModule_bootstrap</title>
<polygon fill="none" stroke="black" points="2249,-208 2249,-260 2319,-260 2319,-208 2249,-208"/>
</g>
<g id="clust2" class="cluster">
<title>cluster_AppModule_declarations</title>
<polygon fill="none" stroke="black" points="16,-78 16,-130 4445,-130 4445,-78 16,-78"/>
</g>
<!-- AdminDashboard -->
<g id="node1" class="node">
<title>AdminDashboard</title>
<polygon fill="#ffffb3" stroke="black" points="4436.53,-122 4321.47,-122 4321.47,-86 4436.53,-86 4436.53,-122"/>
<text text-anchor="middle" x="4379" y="-99.8" font-family="Times,serif" font-size="14.00">AdminDashboard</text>
</g>
<!-- AppModule -->
<g id="node27" class="node">
<title>AppModule</title>
<polygon fill="#8dd3c7" stroke="black" points="2325.66,-187 2322.66,-191 2301.66,-191 2298.66,-187 2242.34,-187 2242.34,-151 2325.66,-151 2325.66,-187"/>
<text text-anchor="middle" x="2284" y="-164.8" font-family="Times,serif" font-size="14.00">AppModule</text>
</g>
<!-- AdminDashboard&#45;&gt;AppModule -->
<g id="edge1" class="edge">
<title>AdminDashboard&#45;&gt;AppModule</title>
<path fill="none" stroke="black" d="M4379,-122.09C4379,-145.13 4379,-182 4379,-182 4379,-182 2335.85,-182 2335.85,-182"/>
<polygon fill="black" stroke="black" points="2335.85,-178.5 2325.85,-182 2335.85,-185.5 2335.85,-178.5"/>
</g>
<!-- AdminLogin -->
<g id="node2" class="node">
<title>AdminLogin</title>
<polygon fill="#ffffb3" stroke="black" points="4303.33,-122 4214.67,-122 4214.67,-86 4303.33,-86 4303.33,-122"/>
<text text-anchor="middle" x="4259" y="-99.8" font-family="Times,serif" font-size="14.00">AdminLogin</text>
</g>
<!-- AdminLogin&#45;&gt;AppModule -->
<g id="edge2" class="edge">
<title>AdminLogin&#45;&gt;AppModule</title>
<path fill="none" stroke="black" d="M4259,-122.16C4259,-144.35 4259,-179 4259,-179 4259,-179 2335.71,-179 2335.71,-179"/>
<polygon fill="black" stroke="black" points="2335.71,-175.5 2325.71,-179 2335.71,-182.5 2335.71,-175.5"/>
</g>
<!-- AdminMenuAdministrador -->
<g id="node3" class="node">
<title>AdminMenuAdministrador</title>
<polygon fill="#ffffb3" stroke="black" points="4196.7,-122 4027.3,-122 4027.3,-86 4196.7,-86 4196.7,-122"/>
<text text-anchor="middle" x="4112" y="-99.8" font-family="Times,serif" font-size="14.00">AdminMenuAdministrador</text>
</g>
<!-- AdminMenuAdministrador&#45;&gt;AppModule -->
<g id="edge3" class="edge">
<title>AdminMenuAdministrador&#45;&gt;AppModule</title>
<path fill="none" stroke="black" d="M4112,-122.17C4112,-143.5 4112,-176 4112,-176 4112,-176 2336.05,-176 2336.05,-176"/>
<polygon fill="black" stroke="black" points="2336.05,-172.5 2326.05,-176 2336.05,-179.5 2336.05,-172.5"/>
</g>
<!-- AdminMenuCarta -->
<g id="node4" class="node">
<title>AdminMenuCarta</title>
<polygon fill="#ffffb3" stroke="black" points="4008.86,-122 3891.14,-122 3891.14,-86 4008.86,-86 4008.86,-122"/>
<text text-anchor="middle" x="3950" y="-99.8" font-family="Times,serif" font-size="14.00">AdminMenuCarta</text>
</g>
<!-- AdminMenuCarta&#45;&gt;AppModule -->
<g id="edge4" class="edge">
<title>AdminMenuCarta&#45;&gt;AppModule</title>
<path fill="none" stroke="black" d="M3950,-122.03C3950,-142.77 3950,-174 3950,-174 3950,-174 2336.02,-174 2336.02,-174"/>
<polygon fill="black" stroke="black" points="2336.02,-170.5 2326.02,-174 2336.02,-177.5 2336.02,-170.5"/>
</g>
<!-- AdminMenuConductor -->
<g id="node5" class="node">
<title>AdminMenuConductor</title>
<polygon fill="#ffffb3" stroke="black" points="3873.15,-122 3726.85,-122 3726.85,-86 3873.15,-86 3873.15,-122"/>
<text text-anchor="middle" x="3800" y="-99.8" font-family="Times,serif" font-size="14.00">AdminMenuConductor</text>
</g>
<!-- AdminMenuConductor&#45;&gt;AppModule -->
<g id="edge5" class="edge">
<title>AdminMenuConductor&#45;&gt;AppModule</title>
<path fill="none" stroke="black" d="M3800,-122.31C3800,-142.15 3800,-171 3800,-171 3800,-171 2335.73,-171 2335.73,-171"/>
<polygon fill="black" stroke="black" points="2335.73,-167.5 2325.73,-171 2335.73,-174.5 2335.73,-167.5"/>
</g>
<!-- AdminMenuManipulador -->
<g id="node6" class="node">
<title>AdminMenuManipulador</title>
<polygon fill="#ffffb3" stroke="black" points="3708.86,-122 3549.14,-122 3549.14,-86 3708.86,-86 3708.86,-122"/>
<text text-anchor="middle" x="3629" y="-99.8" font-family="Times,serif" font-size="14.00">AdminMenuManipulador</text>
</g>
<!-- AdminMenuManipulador&#45;&gt;AppModule -->
<g id="edge6" class="edge">
<title>AdminMenuManipulador&#45;&gt;AppModule</title>
<path fill="none" stroke="black" d="M3629,-122.17C3629,-141.09 3629,-168 3629,-168 3629,-168 2335.73,-168 2335.73,-168"/>
<polygon fill="black" stroke="black" points="2335.73,-164.5 2325.73,-168 2335.73,-171.5 2335.73,-164.5"/>
</g>
<!-- AdminMenuPaqueteAlimenticio -->
<g id="node7" class="node">
<title>AdminMenuPaqueteAlimenticio</title>
<polygon fill="#ffffb3" stroke="black" points="3531.24,-122 3332.76,-122 3332.76,-86 3531.24,-86 3531.24,-122"/>
<text text-anchor="middle" x="3432" y="-99.8" font-family="Times,serif" font-size="14.00">AdminMenuPaqueteAlimenticio</text>
</g>
<!-- AdminMenuPaqueteAlimenticio&#45;&gt;AppModule -->
<g id="edge7" class="edge">
<title>AdminMenuPaqueteAlimenticio&#45;&gt;AppModule</title>
<path fill="none" stroke="black" d="M3432,-122.3C3432,-140.27 3432,-165 3432,-165 3432,-165 2335.88,-165 2335.88,-165"/>
<polygon fill="black" stroke="black" points="2335.88,-161.5 2325.88,-165 2335.88,-168.5 2335.88,-161.5"/>
</g>
<!-- AdminMenuPaqueteNoAlimenticio -->
<g id="node8" class="node">
<title>AdminMenuPaqueteNoAlimenticio</title>
<polygon fill="#ffffb3" stroke="black" points="3314.85,-122 3099.15,-122 3099.15,-86 3314.85,-86 3314.85,-122"/>
<text text-anchor="middle" x="3207" y="-99.8" font-family="Times,serif" font-size="14.00">AdminMenuPaqueteNoAlimenticio</text>
</g>
<!-- AdminMenuPaqueteNoAlimenticio&#45;&gt;AppModule -->
<g id="edge8" class="edge">
<title>AdminMenuPaqueteNoAlimenticio&#45;&gt;AppModule</title>
<path fill="none" stroke="black" d="M3207,-122.02C3207,-139.37 3207,-163 3207,-163 3207,-163 2335.75,-163 2335.75,-163"/>
<polygon fill="black" stroke="black" points="2335.75,-159.5 2325.75,-163 2335.75,-166.5 2335.75,-159.5"/>
</g>
<!-- AdminMenuPrincipal -->
<g id="node9" class="node">
<title>AdminMenuPrincipal</title>
<polygon fill="#ffffb3" stroke="black" points="3081.09,-122 2942.91,-122 2942.91,-86 3081.09,-86 3081.09,-122"/>
<text text-anchor="middle" x="3012" y="-99.8" font-family="Times,serif" font-size="14.00">AdminMenuPrincipal</text>
</g>
<!-- AdminMenuPrincipal&#45;&gt;AppModule -->
<g id="edge9" class="edge">
<title>AdminMenuPrincipal&#45;&gt;AppModule</title>
<path fill="none" stroke="black" d="M3012,-122.03C3012,-138.4 3012,-160 3012,-160 3012,-160 2335.76,-160 2335.76,-160"/>
<polygon fill="black" stroke="black" points="2335.76,-156.5 2325.76,-160 2335.76,-163.5 2335.76,-156.5"/>
</g>
<!-- AdminMenuUsuarioConcurrente -->
<g id="node10" class="node">
<title>AdminMenuUsuarioConcurrente</title>
<polygon fill="#ffffb3" stroke="black" points="2924.56,-122 2723.44,-122 2723.44,-86 2924.56,-86 2924.56,-122"/>
<text text-anchor="middle" x="2824" y="-99.8" font-family="Times,serif" font-size="14.00">AdminMenuUsuarioConcurrente</text>
</g>
<!-- AdminMenuUsuarioConcurrente&#45;&gt;AppModule -->
<g id="edge10" class="edge">
<title>AdminMenuUsuarioConcurrente&#45;&gt;AppModule</title>
<path fill="none" stroke="black" d="M2824,-122.24C2824,-137.57 2824,-157 2824,-157 2824,-157 2335.92,-157 2335.92,-157"/>
<polygon fill="black" stroke="black" points="2335.92,-153.5 2325.92,-157 2335.92,-160.5 2335.92,-153.5"/>
</g>
<!-- AdminMenuUsuarioNormal -->
<g id="node11" class="node">
<title>AdminMenuUsuarioNormal</title>
<polygon fill="#ffffb3" stroke="black" points="2705.13,-122 2530.87,-122 2530.87,-86 2705.13,-86 2705.13,-122"/>
<text text-anchor="middle" x="2618" y="-99.8" font-family="Times,serif" font-size="14.00">AdminMenuUsuarioNormal</text>
</g>
<!-- AdminMenuUsuarioNormal&#45;&gt;AppModule -->
<g id="edge11" class="edge">
<title>AdminMenuUsuarioNormal&#45;&gt;AppModule</title>
<path fill="none" stroke="black" d="M2618,-122.05C2618,-136.37 2618,-154 2618,-154 2618,-154 2335.96,-154 2335.96,-154"/>
<polygon fill="black" stroke="black" points="2335.96,-150.5 2325.96,-154 2335.96,-157.5 2335.96,-150.5"/>
</g>
<!-- AdminMenuUsuarioPremium -->
<g id="node12" class="node">
<title>AdminMenuUsuarioPremium</title>
<polygon fill="#ffffb3" stroke="black" points="2512.69,-122 2329.31,-122 2329.31,-86 2512.69,-86 2512.69,-122"/>
<text text-anchor="middle" x="2421" y="-99.8" font-family="Times,serif" font-size="14.00">AdminMenuUsuarioPremium</text>
</g>
<!-- AdminMenuUsuarioPremium&#45;&gt;AppModule -->
<g id="edge12" class="edge">
<title>AdminMenuUsuarioPremium&#45;&gt;AppModule</title>
<path fill="none" stroke="black" d="M2329.39,-104C2322.65,-104 2318.41,-104 2318.41,-104 2318.41,-104 2318.41,-140.89 2318.41,-140.89"/>
<polygon fill="black" stroke="black" points="2314.91,-140.89 2318.41,-150.89 2321.91,-140.89 2314.91,-140.89"/>
</g>
<!-- App -->
<g id="node13" class="node">
<title>App</title>
<polygon fill="#ffffb3" stroke="black" points="2311,-122 2257,-122 2257,-86 2311,-86 2311,-122"/>
<text text-anchor="middle" x="2284" y="-99.8" font-family="Times,serif" font-size="14.00">App</text>
</g>
<!-- App&#45;&gt;AppModule -->
<g id="edge13" class="edge">
<title>App&#45;&gt;AppModule</title>
<path fill="none" stroke="black" d="M2284,-122.11C2284,-122.11 2284,-140.99 2284,-140.99"/>
<polygon fill="black" stroke="black" points="2280.5,-140.99 2284,-150.99 2287.5,-140.99 2280.5,-140.99"/>
</g>
<!-- ConductorMenuActualizar -->
<g id="node14" class="node">
<title>ConductorMenuActualizar</title>
<polygon fill="#ffffb3" stroke="black" points="2239.06,-122 2072.94,-122 2072.94,-86 2239.06,-86 2239.06,-122"/>
<text text-anchor="middle" x="2156" y="-99.8" font-family="Times,serif" font-size="14.00">ConductorMenuActualizar</text>
</g>
<!-- ConductorMenuActualizar&#45;&gt;AppModule -->
<g id="edge14" class="edge">
<title>ConductorMenuActualizar&#45;&gt;AppModule</title>
<path fill="none" stroke="black" d="M2239.21,-104C2245.57,-104 2249.59,-104 2249.59,-104 2249.59,-104 2249.59,-140.89 2249.59,-140.89"/>
<polygon fill="black" stroke="black" points="2246.09,-140.89 2249.59,-150.89 2253.09,-140.89 2246.09,-140.89"/>
</g>
<!-- ConductorMenuEvidencia -->
<g id="node15" class="node">
<title>ConductorMenuEvidencia</title>
<polygon fill="#ffffb3" stroke="black" points="2054.74,-122 1891.26,-122 1891.26,-86 2054.74,-86 2054.74,-122"/>
<text text-anchor="middle" x="1973" y="-99.8" font-family="Times,serif" font-size="14.00">ConductorMenuEvidencia</text>
</g>
<!-- ConductorMenuEvidencia&#45;&gt;AppModule -->
<g id="edge15" class="edge">
<title>ConductorMenuEvidencia&#45;&gt;AppModule</title>
<path fill="none" stroke="black" d="M1973,-122.05C1973,-136.37 1973,-154 1973,-154 1973,-154 2232.06,-154 2232.06,-154"/>
<polygon fill="black" stroke="black" points="2232.06,-157.5 2242.06,-154 2232.06,-150.5 2232.06,-157.5"/>
</g>
<!-- ConductorMenuPrincipal -->
<g id="node16" class="node">
<title>ConductorMenuPrincipal</title>
<polygon fill="#ffffb3" stroke="black" points="1873.31,-122 1714.69,-122 1714.69,-86 1873.31,-86 1873.31,-122"/>
<text text-anchor="middle" x="1794" y="-99.8" font-family="Times,serif" font-size="14.00">ConductorMenuPrincipal</text>
</g>
<!-- ConductorMenuPrincipal&#45;&gt;AppModule -->
<g id="edge16" class="edge">
<title>ConductorMenuPrincipal&#45;&gt;AppModule</title>
<path fill="none" stroke="black" d="M1794,-122.24C1794,-137.57 1794,-157 1794,-157 1794,-157 2232.22,-157 2232.22,-157"/>
<polygon fill="black" stroke="black" points="2232.22,-160.5 2242.22,-157 2232.22,-153.5 2232.22,-160.5"/>
</g>
<!-- Login -->
<g id="node17" class="node">
<title>Login</title>
<polygon fill="#ffffb3" stroke="black" points="1697,-122 1643,-122 1643,-86 1697,-86 1697,-122"/>
<text text-anchor="middle" x="1670" y="-99.8" font-family="Times,serif" font-size="14.00">Login</text>
</g>
<!-- Login&#45;&gt;AppModule -->
<g id="edge17" class="edge">
<title>Login&#45;&gt;AppModule</title>
<path fill="none" stroke="black" d="M1670,-122.03C1670,-138.4 1670,-160 1670,-160 1670,-160 2232.28,-160 2232.28,-160"/>
<polygon fill="black" stroke="black" points="2232.28,-163.5 2242.28,-160 2232.28,-156.5 2232.28,-163.5"/>
</g>
<!-- ManipuladorMenuActualizar -->
<g id="node18" class="node">
<title>ManipuladorMenuActualizar</title>
<polygon fill="#ffffb3" stroke="black" points="1624.77,-122 1445.23,-122 1445.23,-86 1624.77,-86 1624.77,-122"/>
<text text-anchor="middle" x="1535" y="-99.8" font-family="Times,serif" font-size="14.00">ManipuladorMenuActualizar</text>
</g>
<!-- ManipuladorMenuActualizar&#45;&gt;AppModule -->
<g id="edge18" class="edge">
<title>ManipuladorMenuActualizar&#45;&gt;AppModule</title>
<path fill="none" stroke="black" d="M1535,-122.02C1535,-139.37 1535,-163 1535,-163 1535,-163 2232.13,-163 2232.13,-163"/>
<polygon fill="black" stroke="black" points="2232.13,-166.5 2242.13,-163 2232.13,-159.5 2232.13,-166.5"/>
</g>
<!-- ManipuladorMenuEvicencia -->
<g id="node19" class="node">
<title>ManipuladorMenuEvicencia</title>
<polygon fill="#ffffb3" stroke="black" points="1427.17,-122 1250.83,-122 1250.83,-86 1427.17,-86 1427.17,-122"/>
<text text-anchor="middle" x="1339" y="-99.8" font-family="Times,serif" font-size="14.00">ManipuladorMenuEvicencia</text>
</g>
<!-- ManipuladorMenuEvicencia&#45;&gt;AppModule -->
<g id="edge19" class="edge">
<title>ManipuladorMenuEvicencia&#45;&gt;AppModule</title>
<path fill="none" stroke="black" d="M1339,-122.3C1339,-140.27 1339,-165 1339,-165 1339,-165 2232.18,-165 2232.18,-165"/>
<polygon fill="black" stroke="black" points="2232.18,-168.5 2242.18,-165 2232.18,-161.5 2232.18,-168.5"/>
</g>
<!-- ManipuladorMenuPrincipal -->
<g id="node20" class="node">
<title>ManipuladorMenuPrincipal</title>
<polygon fill="#ffffb3" stroke="black" points="1232.52,-122 1061.48,-122 1061.48,-86 1232.52,-86 1232.52,-122"/>
<text text-anchor="middle" x="1147" y="-99.8" font-family="Times,serif" font-size="14.00">ManipuladorMenuPrincipal</text>
</g>
<!-- ManipuladorMenuPrincipal&#45;&gt;AppModule -->
<g id="edge20" class="edge">
<title>ManipuladorMenuPrincipal&#45;&gt;AppModule</title>
<path fill="none" stroke="black" d="M1147,-122.17C1147,-141.09 1147,-168 1147,-168 1147,-168 2232.19,-168 2232.19,-168"/>
<polygon fill="black" stroke="black" points="2232.19,-171.5 2242.19,-168 2232.19,-164.5 2232.19,-171.5"/>
</g>
<!-- Register -->
<g id="node21" class="node">
<title>Register</title>
<polygon fill="#ffffb3" stroke="black" points="1043.15,-122 980.85,-122 980.85,-86 1043.15,-86 1043.15,-122"/>
<text text-anchor="middle" x="1012" y="-99.8" font-family="Times,serif" font-size="14.00">Register</text>
</g>
<!-- Register&#45;&gt;AppModule -->
<g id="edge21" class="edge">
<title>Register&#45;&gt;AppModule</title>
<path fill="none" stroke="black" d="M1012,-122.31C1012,-142.15 1012,-171 1012,-171 1012,-171 2232.04,-171 2232.04,-171"/>
<polygon fill="black" stroke="black" points="2232.04,-174.5 2242.04,-171 2232.04,-167.5 2232.04,-174.5"/>
</g>
<!-- UsuariosDashboard -->
<g id="node22" class="node">
<title>UsuariosDashboard</title>
<polygon fill="#ffffb3" stroke="black" points="962.4,-122 835.6,-122 835.6,-86 962.4,-86 962.4,-122"/>
<text text-anchor="middle" x="899" y="-99.8" font-family="Times,serif" font-size="14.00">UsuariosDashboard</text>
</g>
<!-- UsuariosDashboard&#45;&gt;AppModule -->
<g id="edge22" class="edge">
<title>UsuariosDashboard&#45;&gt;AppModule</title>
<path fill="none" stroke="black" d="M899,-122.03C899,-142.77 899,-174 899,-174 899,-174 2232.17,-174 2232.17,-174"/>
<polygon fill="black" stroke="black" points="2232.17,-177.5 2242.17,-174 2232.17,-170.5 2232.17,-177.5"/>
</g>
<!-- UsuariosMenuCartas -->
<g id="node23" class="node">
<title>UsuariosMenuCartas</title>
<polygon fill="#ffffb3" stroke="black" points="818.18,-122 683.82,-122 683.82,-86 818.18,-86 818.18,-122"/>
<text text-anchor="middle" x="751" y="-99.8" font-family="Times,serif" font-size="14.00">UsuariosMenuCartas</text>
</g>
<!-- UsuariosMenuCartas&#45;&gt;AppModule -->
<g id="edge23" class="edge">
<title>UsuariosMenuCartas&#45;&gt;AppModule</title>
<path fill="none" stroke="black" d="M751,-122.17C751,-143.5 751,-176 751,-176 751,-176 2232.2,-176 2232.2,-176"/>
<polygon fill="black" stroke="black" points="2232.2,-179.5 2242.2,-176 2232.2,-172.5 2232.2,-179.5"/>
</g>
<!-- UsuariosMenuPaquetesAlimenticios -->
<g id="node24" class="node">
<title>UsuariosMenuPaquetesAlimenticios</title>
<polygon fill="#ffffb3" stroke="black" points="666.01,-122 445.99,-122 445.99,-86 666.01,-86 666.01,-122"/>
<text text-anchor="middle" x="556" y="-99.8" font-family="Times,serif" font-size="14.00">UsuariosMenuPaquetesAlimenticios</text>
</g>
<!-- UsuariosMenuPaquetesAlimenticios&#45;&gt;AppModule -->
<g id="edge24" class="edge">
<title>UsuariosMenuPaquetesAlimenticios&#45;&gt;AppModule</title>
<path fill="none" stroke="black" d="M556,-122.16C556,-144.35 556,-179 556,-179 556,-179 2232.14,-179 2232.14,-179"/>
<polygon fill="black" stroke="black" points="2232.14,-182.5 2242.14,-179 2232.14,-175.5 2232.14,-182.5"/>
</g>
<!-- UsuariosMenuPaquetesNoAlimenticios -->
<g id="node25" class="node">
<title>UsuariosMenuPaquetesNoAlimenticios</title>
<polygon fill="#ffffb3" stroke="black" points="427.61,-122 190.39,-122 190.39,-86 427.61,-86 427.61,-122"/>
<text text-anchor="middle" x="309" y="-99.8" font-family="Times,serif" font-size="14.00">UsuariosMenuPaquetesNoAlimenticios</text>
</g>
<!-- UsuariosMenuPaquetesNoAlimenticios&#45;&gt;AppModule -->
<g id="edge25" class="edge">
<title>UsuariosMenuPaquetesNoAlimenticios&#45;&gt;AppModule</title>
<path fill="none" stroke="black" d="M309,-122.09C309,-145.13 309,-182 309,-182 309,-182 2232.29,-182 2232.29,-182"/>
<polygon fill="black" stroke="black" points="2232.29,-185.5 2242.29,-182 2232.29,-178.5 2232.29,-185.5"/>
</g>
<!-- UsuariosMenuPrincipal -->
<g id="node26" class="node">
<title>UsuariosMenuPrincipal</title>
<polygon fill="#ffffb3" stroke="black" points="172.47,-122 23.53,-122 23.53,-86 172.47,-86 172.47,-122"/>
<text text-anchor="middle" x="98" y="-99.8" font-family="Times,serif" font-size="14.00">UsuariosMenuPrincipal</text>
</g>
<!-- UsuariosMenuPrincipal&#45;&gt;AppModule -->
<g id="edge26" class="edge">
<title>UsuariosMenuPrincipal&#45;&gt;AppModule</title>
<path fill="none" stroke="black" d="M98,-122.38C98,-146.28 98,-185 98,-185 98,-185 2232.28,-185 2232.28,-185"/>
<polygon fill="black" stroke="black" points="2232.28,-188.5 2242.28,-185 2232.28,-181.5 2232.28,-188.5"/>
</g>
<!-- App  -->
<g id="node29" class="node">
<title>App </title>
<polygon fill="#80b1d3" stroke="black" points="2311,-252 2257,-252 2257,-216 2311,-216 2311,-252"/>
<text text-anchor="middle" x="2284" y="-229.8" font-family="Times,serif" font-size="14.00">App </text>
</g>
<!-- AppModule&#45;&gt;App  -->
<g id="edge28" class="edge">
<title>AppModule&#45;&gt;App </title>
<path fill="none" stroke="black" stroke-dasharray="1,5" d="M2284,-187.11C2284,-187.11 2284,-205.99 2284,-205.99"/>
<polygon fill="black" stroke="black" points="2280.5,-205.99 2284,-215.99 2287.5,-205.99 2280.5,-205.99"/>
</g>
<!-- AppRoutingModule -->
<g id="node28" class="node">
<title>AppRoutingModule</title>
<polygon fill="#8dd3c7" stroke="black" points="4589.27,-122 4586.27,-126 4565.27,-126 4562.27,-122 4460.73,-122 4460.73,-86 4589.27,-86 4589.27,-122"/>
<text text-anchor="middle" x="4525" y="-99.8" font-family="Times,serif" font-size="14.00">AppRoutingModule</text>
</g>
<!-- AppRoutingModule&#45;&gt;AppModule -->
<g id="edge27" class="edge">
<title>AppRoutingModule&#45;&gt;AppModule</title>
<path fill="none" stroke="black" d="M4525,-122.38C4525,-146.28 4525,-185 4525,-185 4525,-185 2335.78,-185 2335.78,-185"/>
<polygon fill="black" stroke="black" points="2335.78,-181.5 2325.78,-185 2335.78,-188.5 2335.78,-181.5"/>
</g>
</g>
</svg>
